<mxfile host="app.diagrams.net" modified="2020-10-21T21:44:44.881Z" agent="5.0 (Windows NT 10.0; Win64; x64) AppleWebKit/537.36 (KHTML, like Gecko) Chrome/86.0.4240.75 Safari/537.36" etag="QoDgN8YBQUxLRj024vea" version="13.8.1" type="github">
  <diagram id="R2lEEEUBdFMjLlhIrx00" name="Page-1">
    <mxGraphModel dx="1770" dy="1659" grid="1" gridSize="10" guides="1" tooltips="1" connect="1" arrows="1" fold="1" page="1" pageScale="1" pageWidth="850" pageHeight="1100" math="0" shadow="0" extFonts="Permanent Marker^https://fonts.googleapis.com/css?family=Permanent+Marker">
      <root>
        <mxCell id="0" />
        <mxCell id="1" parent="0" />
        <mxCell id="-dxICUGgYqwIrcSDlkxH-122" style="edgeStyle=orthogonalEdgeStyle;rounded=0;orthogonalLoop=1;jettySize=auto;html=1;exitX=1;exitY=0.75;exitDx=0;exitDy=0;entryX=0.5;entryY=0;entryDx=0;entryDy=0;startArrow=ERoneToMany;startFill=0;endArrow=ERmandOne;endFill=0;" edge="1" parent="1" source="-dxICUGgYqwIrcSDlkxH-123" target="-dxICUGgYqwIrcSDlkxH-221">
          <mxGeometry relative="1" as="geometry" />
        </mxCell>
        <mxCell id="-dxICUGgYqwIrcSDlkxH-123" value="Partner" style="shape=table;startSize=30;container=1;collapsible=1;childLayout=tableLayout;fixedRows=1;rowLines=0;fontStyle=0;align=center;resizeLast=1;rounded=1;shadow=0;dashed=0;fontSize=14;strokeWidth=2;" vertex="1" parent="1">
          <mxGeometry x="330" y="270" width="180" height="100" as="geometry" />
        </mxCell>
        <mxCell id="-dxICUGgYqwIrcSDlkxH-127" value="" style="shape=partialRectangle;collapsible=0;dropTarget=0;pointerEvents=0;fillColor=none;points=[[0,0.5],[1,0.5]];portConstraint=eastwest;top=0;left=0;right=0;bottom=0;" vertex="1" parent="-dxICUGgYqwIrcSDlkxH-123">
          <mxGeometry y="30" width="180" height="30" as="geometry" />
        </mxCell>
        <mxCell id="-dxICUGgYqwIrcSDlkxH-128" value="" style="shape=partialRectangle;overflow=hidden;connectable=0;fillColor=none;top=0;left=0;bottom=0;right=0;" vertex="1" parent="-dxICUGgYqwIrcSDlkxH-127">
          <mxGeometry width="30" height="30" as="geometry" />
        </mxCell>
        <mxCell id="-dxICUGgYqwIrcSDlkxH-129" value="" style="shape=partialRectangle;overflow=hidden;connectable=0;fillColor=none;top=0;left=0;bottom=0;right=0;align=left;spacingLeft=6;" vertex="1" parent="-dxICUGgYqwIrcSDlkxH-127">
          <mxGeometry x="30" width="150" height="30" as="geometry" />
        </mxCell>
        <mxCell id="-dxICUGgYqwIrcSDlkxH-130" value="Organization" style="shape=table;startSize=30;container=1;collapsible=1;childLayout=tableLayout;fixedRows=1;rowLines=0;fontStyle=0;align=center;resizeLast=1;rounded=1;shadow=0;dashed=0;fontSize=14;strokeWidth=2;" vertex="1" parent="1">
          <mxGeometry x="590" y="270" width="180" height="100" as="geometry" />
        </mxCell>
        <mxCell id="-dxICUGgYqwIrcSDlkxH-134" value="" style="shape=partialRectangle;collapsible=0;dropTarget=0;pointerEvents=0;fillColor=none;points=[[0,0.5],[1,0.5]];portConstraint=eastwest;top=0;left=0;right=0;bottom=0;" vertex="1" parent="-dxICUGgYqwIrcSDlkxH-130">
          <mxGeometry y="30" width="180" height="30" as="geometry" />
        </mxCell>
        <mxCell id="-dxICUGgYqwIrcSDlkxH-135" value="" style="shape=partialRectangle;overflow=hidden;connectable=0;fillColor=none;top=0;left=0;bottom=0;right=0;" vertex="1" parent="-dxICUGgYqwIrcSDlkxH-134">
          <mxGeometry width="30" height="30" as="geometry" />
        </mxCell>
        <mxCell id="-dxICUGgYqwIrcSDlkxH-136" value="" style="shape=partialRectangle;overflow=hidden;connectable=0;fillColor=none;top=0;left=0;bottom=0;right=0;align=left;spacingLeft=6;" vertex="1" parent="-dxICUGgYqwIrcSDlkxH-134">
          <mxGeometry x="30" width="150" height="30" as="geometry" />
        </mxCell>
        <mxCell id="-dxICUGgYqwIrcSDlkxH-137" style="edgeStyle=orthogonalEdgeStyle;rounded=0;orthogonalLoop=1;jettySize=auto;html=1;exitX=0.5;exitY=1;exitDx=0;exitDy=0;entryX=1;entryY=0.5;entryDx=0;entryDy=0;startArrow=ERoneToMany;startFill=0;endArrow=ERmandOne;endFill=0;" edge="1" parent="1" source="-dxICUGgYqwIrcSDlkxH-138">
          <mxGeometry relative="1" as="geometry">
            <mxPoint x="510" y="315" as="targetPoint" />
          </mxGeometry>
        </mxCell>
        <mxCell id="-dxICUGgYqwIrcSDlkxH-138" value="Address" style="shape=table;startSize=30;container=1;collapsible=1;childLayout=tableLayout;fixedRows=1;rowLines=0;fontStyle=0;align=center;resizeLast=1;rounded=1;shadow=0;dashed=0;fontSize=14;strokeWidth=2;" vertex="1" parent="1">
          <mxGeometry x="450" y="50" width="180" height="100" as="geometry" />
        </mxCell>
        <mxCell id="-dxICUGgYqwIrcSDlkxH-142" value="" style="shape=partialRectangle;collapsible=0;dropTarget=0;pointerEvents=0;fillColor=none;points=[[0,0.5],[1,0.5]];portConstraint=eastwest;top=0;left=0;right=0;bottom=0;" vertex="1" parent="-dxICUGgYqwIrcSDlkxH-138">
          <mxGeometry y="30" width="180" height="30" as="geometry" />
        </mxCell>
        <mxCell id="-dxICUGgYqwIrcSDlkxH-143" value="" style="shape=partialRectangle;overflow=hidden;connectable=0;fillColor=none;top=0;left=0;bottom=0;right=0;" vertex="1" parent="-dxICUGgYqwIrcSDlkxH-142">
          <mxGeometry width="30" height="30" as="geometry" />
        </mxCell>
        <mxCell id="-dxICUGgYqwIrcSDlkxH-144" value="" style="shape=partialRectangle;overflow=hidden;connectable=0;fillColor=none;top=0;left=0;bottom=0;right=0;align=left;spacingLeft=6;" vertex="1" parent="-dxICUGgYqwIrcSDlkxH-142">
          <mxGeometry x="30" width="150" height="30" as="geometry" />
        </mxCell>
        <mxCell id="-dxICUGgYqwIrcSDlkxH-145" value="" style="shape=partialRectangle;collapsible=0;dropTarget=0;pointerEvents=0;fillColor=none;points=[[0,0.5],[1,0.5]];portConstraint=eastwest;top=0;left=0;right=0;bottom=0;" vertex="1" parent="-dxICUGgYqwIrcSDlkxH-138">
          <mxGeometry y="60" width="180" height="30" as="geometry" />
        </mxCell>
        <mxCell id="-dxICUGgYqwIrcSDlkxH-146" value="" style="shape=partialRectangle;overflow=hidden;connectable=0;fillColor=none;top=0;left=0;bottom=0;right=0;" vertex="1" parent="-dxICUGgYqwIrcSDlkxH-145">
          <mxGeometry width="30" height="30" as="geometry" />
        </mxCell>
        <mxCell id="-dxICUGgYqwIrcSDlkxH-147" value="" style="shape=partialRectangle;overflow=hidden;connectable=0;fillColor=none;top=0;left=0;bottom=0;right=0;align=left;spacingLeft=6;" vertex="1" parent="-dxICUGgYqwIrcSDlkxH-145">
          <mxGeometry x="30" width="150" height="30" as="geometry" />
        </mxCell>
        <mxCell id="-dxICUGgYqwIrcSDlkxH-148" style="edgeStyle=orthogonalEdgeStyle;rounded=0;orthogonalLoop=1;jettySize=auto;html=1;exitX=0.25;exitY=1;exitDx=0;exitDy=0;startArrow=ERzeroToMany;startFill=1;endArrow=ERmandOne;endFill=0;entryX=0.204;entryY=-0.018;entryDx=0;entryDy=0;entryPerimeter=0;" edge="1" parent="1" source="-dxICUGgYqwIrcSDlkxH-153" target="-dxICUGgYqwIrcSDlkxH-196">
          <mxGeometry relative="1" as="geometry" />
        </mxCell>
        <mxCell id="-dxICUGgYqwIrcSDlkxH-149" style="edgeStyle=orthogonalEdgeStyle;rounded=0;orthogonalLoop=1;jettySize=auto;html=1;exitX=1;exitY=0.5;exitDx=0;exitDy=0;entryX=0.25;entryY=0;entryDx=0;entryDy=0;startArrow=ERzeroToMany;startFill=1;endArrow=ERoneToMany;endFill=0;" edge="1" parent="1" source="-dxICUGgYqwIrcSDlkxH-157" target="-dxICUGgYqwIrcSDlkxH-130">
          <mxGeometry relative="1" as="geometry">
            <Array as="points">
              <mxPoint x="430" y="125" />
              <mxPoint x="430" y="200" />
              <mxPoint x="635" y="200" />
            </Array>
          </mxGeometry>
        </mxCell>
        <mxCell id="-dxICUGgYqwIrcSDlkxH-150" style="edgeStyle=orthogonalEdgeStyle;rounded=0;orthogonalLoop=1;jettySize=auto;html=1;entryX=0.25;entryY=0;entryDx=0;entryDy=0;startArrow=ERzeroToMany;startFill=1;endArrow=ERzeroToMany;endFill=1;" edge="1" parent="1" target="-dxICUGgYqwIrcSDlkxH-172">
          <mxGeometry relative="1" as="geometry">
            <mxPoint x="30" y="120" as="sourcePoint" />
            <Array as="points">
              <mxPoint x="-10" y="120" />
              <mxPoint x="-10" y="420" />
              <mxPoint x="90" y="420" />
            </Array>
          </mxGeometry>
        </mxCell>
        <mxCell id="-dxICUGgYqwIrcSDlkxH-151" style="edgeStyle=orthogonalEdgeStyle;rounded=0;orthogonalLoop=1;jettySize=auto;html=1;exitX=0;exitY=0.75;exitDx=0;exitDy=0;entryX=0.25;entryY=0;entryDx=0;entryDy=0;startArrow=ERzeroToMany;startFill=1;endArrow=ERzeroToMany;endFill=1;" edge="1" parent="1" source="-dxICUGgYqwIrcSDlkxH-153" target="-dxICUGgYqwIrcSDlkxH-213">
          <mxGeometry relative="1" as="geometry">
            <Array as="points">
              <mxPoint x="10" y="148" />
              <mxPoint x="10" y="400" />
              <mxPoint x="285" y="400" />
            </Array>
          </mxGeometry>
        </mxCell>
        <mxCell id="-dxICUGgYqwIrcSDlkxH-152" style="edgeStyle=orthogonalEdgeStyle;rounded=0;orthogonalLoop=1;jettySize=auto;html=1;exitX=1;exitY=0.5;exitDx=0;exitDy=0;entryX=0.25;entryY=0;entryDx=0;entryDy=0;startArrow=block;startFill=1;endArrow=ERoneToMany;endFill=0;" edge="1" parent="1" source="-dxICUGgYqwIrcSDlkxH-232" target="-dxICUGgYqwIrcSDlkxH-123">
          <mxGeometry relative="1" as="geometry">
            <Array as="points">
              <mxPoint x="375" y="213" />
            </Array>
            <mxPoint x="270" y="316" as="sourcePoint" />
          </mxGeometry>
        </mxCell>
        <mxCell id="-dxICUGgYqwIrcSDlkxH-153" value="Projects" style="swimlane;childLayout=stackLayout;horizontal=1;startSize=30;horizontalStack=0;rounded=1;fontSize=14;fontStyle=0;strokeWidth=2;resizeParent=0;resizeLast=1;shadow=0;dashed=0;align=center;" vertex="1" parent="1">
          <mxGeometry x="30" y="50" width="180" height="130" as="geometry" />
        </mxCell>
        <mxCell id="-dxICUGgYqwIrcSDlkxH-154" value="" style="shape=partialRectangle;collapsible=0;dropTarget=0;pointerEvents=0;fillColor=none;points=[[0,0.5],[1,0.5]];portConstraint=eastwest;top=0;left=0;right=0;bottom=1;" vertex="1" parent="-dxICUGgYqwIrcSDlkxH-153">
          <mxGeometry y="30" width="180" height="30" as="geometry" />
        </mxCell>
        <mxCell id="-dxICUGgYqwIrcSDlkxH-155" value="" style="shape=partialRectangle;overflow=hidden;connectable=0;fillColor=none;top=0;left=0;bottom=0;right=0;fontStyle=1;" vertex="1" parent="-dxICUGgYqwIrcSDlkxH-154">
          <mxGeometry width="30" height="30" as="geometry" />
        </mxCell>
        <mxCell id="-dxICUGgYqwIrcSDlkxH-157" value="" style="shape=partialRectangle;collapsible=0;dropTarget=0;pointerEvents=0;fillColor=none;points=[[0,0.5],[1,0.5]];portConstraint=eastwest;top=0;left=0;right=0;bottom=0;" vertex="1" parent="-dxICUGgYqwIrcSDlkxH-153">
          <mxGeometry y="60" width="180" height="70" as="geometry" />
        </mxCell>
        <mxCell id="-dxICUGgYqwIrcSDlkxH-158" value="" style="shape=partialRectangle;overflow=hidden;connectable=0;fillColor=none;top=0;left=0;bottom=0;right=0;" vertex="1" parent="-dxICUGgYqwIrcSDlkxH-157">
          <mxGeometry width="30" height="30" as="geometry" />
        </mxCell>
        <mxCell id="-dxICUGgYqwIrcSDlkxH-159" value="" style="shape=partialRectangle;overflow=hidden;connectable=0;fillColor=none;top=0;left=0;bottom=0;right=0;align=left;spacingLeft=6;" vertex="1" parent="-dxICUGgYqwIrcSDlkxH-157">
          <mxGeometry x="30" width="150" height="30" as="geometry" />
        </mxCell>
        <mxCell id="-dxICUGgYqwIrcSDlkxH-160" style="edgeStyle=orthogonalEdgeStyle;rounded=0;orthogonalLoop=1;jettySize=auto;html=1;exitX=0.5;exitY=1;exitDx=0;exitDy=0;entryX=0.5;entryY=0;entryDx=0;entryDy=0;startArrow=ERzeroToMany;startFill=1;endArrow=ERzeroToMany;endFill=1;" edge="1" parent="1" source="-dxICUGgYqwIrcSDlkxH-162" target="-dxICUGgYqwIrcSDlkxH-189">
          <mxGeometry relative="1" as="geometry" />
        </mxCell>
        <mxCell id="-dxICUGgYqwIrcSDlkxH-161" style="edgeStyle=orthogonalEdgeStyle;rounded=0;orthogonalLoop=1;jettySize=auto;html=1;exitX=0;exitY=0.5;exitDx=0;exitDy=0;entryX=0.5;entryY=0;entryDx=0;entryDy=0;startArrow=block;startFill=1;endArrow=ERoneToMany;endFill=0;" edge="1" parent="1" source="-dxICUGgYqwIrcSDlkxH-237" target="-dxICUGgYqwIrcSDlkxH-153">
          <mxGeometry relative="1" as="geometry">
            <Array as="points">
              <mxPoint x="120" y="-15" />
            </Array>
          </mxGeometry>
        </mxCell>
        <mxCell id="-dxICUGgYqwIrcSDlkxH-162" value="Faculty" style="shape=table;startSize=30;container=1;collapsible=1;childLayout=tableLayout;fixedRows=1;rowLines=0;fontStyle=0;align=center;resizeLast=1;rounded=1;shadow=0;dashed=0;fontSize=14;strokeWidth=2;" vertex="1" parent="1">
          <mxGeometry x="850" y="50" width="180" height="100" as="geometry" />
        </mxCell>
        <mxCell id="-dxICUGgYqwIrcSDlkxH-166" value="" style="shape=partialRectangle;collapsible=0;dropTarget=0;pointerEvents=0;fillColor=none;points=[[0,0.5],[1,0.5]];portConstraint=eastwest;top=0;left=0;right=0;bottom=0;" vertex="1" parent="-dxICUGgYqwIrcSDlkxH-162">
          <mxGeometry y="30" width="180" height="30" as="geometry" />
        </mxCell>
        <mxCell id="-dxICUGgYqwIrcSDlkxH-167" value="" style="shape=partialRectangle;overflow=hidden;connectable=0;fillColor=none;top=0;left=0;bottom=0;right=0;" vertex="1" parent="-dxICUGgYqwIrcSDlkxH-166">
          <mxGeometry width="30" height="30" as="geometry" />
        </mxCell>
        <mxCell id="-dxICUGgYqwIrcSDlkxH-168" value="" style="shape=partialRectangle;overflow=hidden;connectable=0;fillColor=none;top=0;left=0;bottom=0;right=0;align=left;spacingLeft=6;" vertex="1" parent="-dxICUGgYqwIrcSDlkxH-166">
          <mxGeometry x="30" width="150" height="30" as="geometry" />
        </mxCell>
        <mxCell id="-dxICUGgYqwIrcSDlkxH-169" value="" style="shape=partialRectangle;collapsible=0;dropTarget=0;pointerEvents=0;fillColor=none;points=[[0,0.5],[1,0.5]];portConstraint=eastwest;top=0;left=0;right=0;bottom=0;" vertex="1" parent="-dxICUGgYqwIrcSDlkxH-162">
          <mxGeometry y="60" width="180" height="30" as="geometry" />
        </mxCell>
        <mxCell id="-dxICUGgYqwIrcSDlkxH-170" value="" style="shape=partialRectangle;overflow=hidden;connectable=0;fillColor=none;top=0;left=0;bottom=0;right=0;" vertex="1" parent="-dxICUGgYqwIrcSDlkxH-169">
          <mxGeometry width="30" height="30" as="geometry" />
        </mxCell>
        <mxCell id="-dxICUGgYqwIrcSDlkxH-171" value="" style="shape=partialRectangle;overflow=hidden;connectable=0;fillColor=none;top=0;left=0;bottom=0;right=0;align=left;spacingLeft=6;" vertex="1" parent="-dxICUGgYqwIrcSDlkxH-169">
          <mxGeometry x="30" width="150" height="30" as="geometry" />
        </mxCell>
        <mxCell id="-dxICUGgYqwIrcSDlkxH-172" value="Population" style="shape=table;startSize=30;container=1;collapsible=1;childLayout=tableLayout;fixedRows=1;rowLines=0;fontStyle=0;align=center;resizeLast=1;rounded=1;shadow=0;dashed=0;fontSize=14;strokeWidth=2;" vertex="1" parent="1">
          <mxGeometry x="45" y="470" width="180" height="100" as="geometry" />
        </mxCell>
        <mxCell id="-dxICUGgYqwIrcSDlkxH-176" value="" style="shape=partialRectangle;collapsible=0;dropTarget=0;pointerEvents=0;fillColor=none;points=[[0,0.5],[1,0.5]];portConstraint=eastwest;top=0;left=0;right=0;bottom=0;" vertex="1" parent="-dxICUGgYqwIrcSDlkxH-172">
          <mxGeometry y="30" width="180" height="30" as="geometry" />
        </mxCell>
        <mxCell id="-dxICUGgYqwIrcSDlkxH-177" value="" style="shape=partialRectangle;overflow=hidden;connectable=0;fillColor=none;top=0;left=0;bottom=0;right=0;" vertex="1" parent="-dxICUGgYqwIrcSDlkxH-176">
          <mxGeometry width="30" height="30" as="geometry" />
        </mxCell>
        <mxCell id="-dxICUGgYqwIrcSDlkxH-178" value="" style="shape=partialRectangle;overflow=hidden;connectable=0;fillColor=none;top=0;left=0;bottom=0;right=0;align=left;spacingLeft=6;" vertex="1" parent="-dxICUGgYqwIrcSDlkxH-176">
          <mxGeometry x="30" width="150" height="30" as="geometry" />
        </mxCell>
        <mxCell id="-dxICUGgYqwIrcSDlkxH-179" style="edgeStyle=orthogonalEdgeStyle;rounded=0;orthogonalLoop=1;jettySize=auto;html=1;exitX=0.25;exitY=1;exitDx=0;exitDy=0;entryX=0.75;entryY=1;entryDx=0;entryDy=0;startArrow=ERzeroToMany;startFill=1;endArrow=ERzeroToMany;endFill=1;" edge="1" parent="1" source="-dxICUGgYqwIrcSDlkxH-181" target="-dxICUGgYqwIrcSDlkxH-213">
          <mxGeometry relative="1" as="geometry">
            <Array as="points">
              <mxPoint x="895" y="640" />
              <mxPoint x="375" y="640" />
            </Array>
          </mxGeometry>
        </mxCell>
        <mxCell id="-dxICUGgYqwIrcSDlkxH-180" style="edgeStyle=orthogonalEdgeStyle;rounded=0;orthogonalLoop=1;jettySize=auto;html=1;exitX=0.75;exitY=1;exitDx=0;exitDy=0;entryX=0.25;entryY=1;entryDx=0;entryDy=0;startArrow=ERzeroToMany;startFill=1;endArrow=ERzeroToMany;endFill=1;" edge="1" parent="1" source="-dxICUGgYqwIrcSDlkxH-181" target="-dxICUGgYqwIrcSDlkxH-172">
          <mxGeometry relative="1" as="geometry">
            <Array as="points">
              <mxPoint x="985" y="670" />
              <mxPoint x="90" y="670" />
            </Array>
          </mxGeometry>
        </mxCell>
        <mxCell id="-dxICUGgYqwIrcSDlkxH-181" value="community_Scholars" style="shape=table;startSize=30;container=1;collapsible=1;childLayout=tableLayout;fixedRows=1;rowLines=0;fontStyle=0;align=center;resizeLast=1;rounded=1;shadow=0;dashed=0;fontSize=14;strokeWidth=2;" vertex="1" parent="1">
          <mxGeometry x="850" y="470" width="180" height="100" as="geometry" />
        </mxCell>
        <mxCell id="-dxICUGgYqwIrcSDlkxH-185" value="" style="shape=partialRectangle;collapsible=0;dropTarget=0;pointerEvents=0;fillColor=none;points=[[0,0.5],[1,0.5]];portConstraint=eastwest;top=0;left=0;right=0;bottom=0;" vertex="1" parent="-dxICUGgYqwIrcSDlkxH-181">
          <mxGeometry y="30" width="180" height="30" as="geometry" />
        </mxCell>
        <mxCell id="-dxICUGgYqwIrcSDlkxH-186" value="" style="shape=partialRectangle;overflow=hidden;connectable=0;fillColor=none;top=0;left=0;bottom=0;right=0;" vertex="1" parent="-dxICUGgYqwIrcSDlkxH-185">
          <mxGeometry width="30" height="30" as="geometry" />
        </mxCell>
        <mxCell id="-dxICUGgYqwIrcSDlkxH-187" value="" style="shape=partialRectangle;overflow=hidden;connectable=0;fillColor=none;top=0;left=0;bottom=0;right=0;align=left;spacingLeft=6;" vertex="1" parent="-dxICUGgYqwIrcSDlkxH-185">
          <mxGeometry x="30" width="150" height="30" as="geometry" />
        </mxCell>
        <mxCell id="-dxICUGgYqwIrcSDlkxH-188" style="edgeStyle=orthogonalEdgeStyle;rounded=0;orthogonalLoop=1;jettySize=auto;html=1;exitX=1;exitY=0.5;exitDx=0;exitDy=0;startArrow=ERzeroToMany;startFill=1;endArrow=ERzeroToMany;endFill=1;" edge="1" parent="1" source="-dxICUGgYqwIrcSDlkxH-154">
          <mxGeometry relative="1" as="geometry">
            <mxPoint x="450" y="95" as="targetPoint" />
          </mxGeometry>
        </mxCell>
        <mxCell id="-dxICUGgYqwIrcSDlkxH-189" value="user_Feedback" style="shape=table;startSize=30;container=1;collapsible=1;childLayout=tableLayout;fixedRows=1;rowLines=0;fontStyle=0;align=center;resizeLast=1;rounded=1;shadow=0;dashed=0;fontSize=14;strokeWidth=2;" vertex="1" parent="1">
          <mxGeometry x="865" y="230" width="150" height="80" as="geometry" />
        </mxCell>
        <mxCell id="-dxICUGgYqwIrcSDlkxH-193" value="" style="shape=partialRectangle;collapsible=0;dropTarget=0;pointerEvents=0;fillColor=none;points=[[0,0.5],[1,0.5]];portConstraint=eastwest;top=0;left=0;right=0;bottom=0;" vertex="1" parent="-dxICUGgYqwIrcSDlkxH-189">
          <mxGeometry y="30" width="150" height="30" as="geometry" />
        </mxCell>
        <mxCell id="-dxICUGgYqwIrcSDlkxH-194" value="" style="shape=partialRectangle;overflow=hidden;connectable=0;fillColor=none;top=0;left=0;bottom=0;right=0;" vertex="1" parent="-dxICUGgYqwIrcSDlkxH-193">
          <mxGeometry width="30" height="30" as="geometry" />
        </mxCell>
        <mxCell id="-dxICUGgYqwIrcSDlkxH-195" value="" style="shape=partialRectangle;overflow=hidden;connectable=0;fillColor=none;top=0;left=0;bottom=0;right=0;align=left;spacingLeft=6;" vertex="1" parent="-dxICUGgYqwIrcSDlkxH-193">
          <mxGeometry x="30" width="120" height="30" as="geometry" />
        </mxCell>
        <mxCell id="-dxICUGgYqwIrcSDlkxH-196" value="Submitters" style="shape=table;startSize=30;container=1;collapsible=1;childLayout=tableLayout;fixedRows=1;rowLines=0;fontStyle=0;align=center;resizeLast=1;rounded=1;shadow=0;dashed=0;fontSize=14;strokeWidth=2;" vertex="1" parent="1">
          <mxGeometry x="45" y="230" width="150" height="80" as="geometry" />
        </mxCell>
        <mxCell id="-dxICUGgYqwIrcSDlkxH-200" value="" style="shape=partialRectangle;collapsible=0;dropTarget=0;pointerEvents=0;fillColor=none;points=[[0,0.5],[1,0.5]];portConstraint=eastwest;top=0;left=0;right=0;bottom=0;" vertex="1" parent="-dxICUGgYqwIrcSDlkxH-196">
          <mxGeometry y="30" width="150" height="30" as="geometry" />
        </mxCell>
        <mxCell id="-dxICUGgYqwIrcSDlkxH-201" value="" style="shape=partialRectangle;overflow=hidden;connectable=0;fillColor=none;top=0;left=0;bottom=0;right=0;" vertex="1" parent="-dxICUGgYqwIrcSDlkxH-200">
          <mxGeometry width="30" height="30" as="geometry" />
        </mxCell>
        <mxCell id="-dxICUGgYqwIrcSDlkxH-202" value="" style="shape=partialRectangle;overflow=hidden;connectable=0;fillColor=none;top=0;left=0;bottom=0;right=0;align=left;spacingLeft=6;" vertex="1" parent="-dxICUGgYqwIrcSDlkxH-200">
          <mxGeometry x="30" width="120" height="30" as="geometry" />
        </mxCell>
        <mxCell id="-dxICUGgYqwIrcSDlkxH-203" style="edgeStyle=orthogonalEdgeStyle;rounded=0;orthogonalLoop=1;jettySize=auto;html=1;exitX=0.75;exitY=0;exitDx=0;exitDy=0;entryX=1;entryY=0.75;entryDx=0;entryDy=0;startArrow=ERzeroToMany;startFill=1;endArrow=ERzeroToMany;endFill=1;" edge="1" parent="1" source="-dxICUGgYqwIrcSDlkxH-205" target="-dxICUGgYqwIrcSDlkxH-130">
          <mxGeometry relative="1" as="geometry" />
        </mxCell>
        <mxCell id="-dxICUGgYqwIrcSDlkxH-204" style="edgeStyle=orthogonalEdgeStyle;rounded=0;orthogonalLoop=1;jettySize=auto;html=1;exitX=0.5;exitY=1;exitDx=0;exitDy=0;entryX=0.5;entryY=1;entryDx=0;entryDy=0;startArrow=ERzeroToMany;startFill=1;endArrow=ERzeroToMany;endFill=1;" edge="1" parent="1" source="-dxICUGgYqwIrcSDlkxH-205" target="-dxICUGgYqwIrcSDlkxH-172">
          <mxGeometry relative="1" as="geometry" />
        </mxCell>
        <mxCell id="-dxICUGgYqwIrcSDlkxH-205" value="center_Units" style="shape=table;startSize=30;container=1;collapsible=1;childLayout=tableLayout;fixedRows=1;rowLines=0;fontStyle=0;align=center;resizeLast=1;rounded=1;shadow=0;dashed=0;fontSize=14;strokeWidth=2;" vertex="1" parent="1">
          <mxGeometry x="660" y="470" width="180" height="100" as="geometry" />
        </mxCell>
        <mxCell id="-dxICUGgYqwIrcSDlkxH-209" value="" style="shape=partialRectangle;collapsible=0;dropTarget=0;pointerEvents=0;fillColor=none;points=[[0,0.5],[1,0.5]];portConstraint=eastwest;top=0;left=0;right=0;bottom=0;" vertex="1" parent="-dxICUGgYqwIrcSDlkxH-205">
          <mxGeometry y="30" width="180" height="30" as="geometry" />
        </mxCell>
        <mxCell id="-dxICUGgYqwIrcSDlkxH-210" value="" style="shape=partialRectangle;overflow=hidden;connectable=0;fillColor=none;top=0;left=0;bottom=0;right=0;" vertex="1" parent="-dxICUGgYqwIrcSDlkxH-209">
          <mxGeometry width="30" height="30" as="geometry" />
        </mxCell>
        <mxCell id="-dxICUGgYqwIrcSDlkxH-211" value="" style="shape=partialRectangle;overflow=hidden;connectable=0;fillColor=none;top=0;left=0;bottom=0;right=0;align=left;spacingLeft=6;" vertex="1" parent="-dxICUGgYqwIrcSDlkxH-209">
          <mxGeometry x="30" width="150" height="30" as="geometry" />
        </mxCell>
        <mxCell id="-dxICUGgYqwIrcSDlkxH-212" style="edgeStyle=orthogonalEdgeStyle;rounded=0;orthogonalLoop=1;jettySize=auto;html=1;exitX=0.75;exitY=0;exitDx=0;exitDy=0;entryX=0.5;entryY=0;entryDx=0;entryDy=0;startArrow=ERzeroToMany;startFill=1;endArrow=ERzeroToMany;endFill=1;" edge="1" parent="1" source="-dxICUGgYqwIrcSDlkxH-213" target="-dxICUGgYqwIrcSDlkxH-205">
          <mxGeometry relative="1" as="geometry" />
        </mxCell>
        <mxCell id="-dxICUGgYqwIrcSDlkxH-213" value="Focus" style="shape=table;startSize=30;container=1;collapsible=1;childLayout=tableLayout;fixedRows=1;rowLines=0;fontStyle=0;align=center;resizeLast=1;rounded=1;shadow=0;dashed=0;fontSize=14;strokeWidth=2;" vertex="1" parent="1">
          <mxGeometry x="240" y="470" width="180" height="100" as="geometry" />
        </mxCell>
        <mxCell id="-dxICUGgYqwIrcSDlkxH-217" value="" style="shape=partialRectangle;collapsible=0;dropTarget=0;pointerEvents=0;fillColor=none;points=[[0,0.5],[1,0.5]];portConstraint=eastwest;top=0;left=0;right=0;bottom=0;" vertex="1" parent="-dxICUGgYqwIrcSDlkxH-213">
          <mxGeometry y="30" width="180" height="30" as="geometry" />
        </mxCell>
        <mxCell id="-dxICUGgYqwIrcSDlkxH-218" value="" style="shape=partialRectangle;overflow=hidden;connectable=0;fillColor=none;top=0;left=0;bottom=0;right=0;" vertex="1" parent="-dxICUGgYqwIrcSDlkxH-217">
          <mxGeometry width="30" height="30" as="geometry" />
        </mxCell>
        <mxCell id="-dxICUGgYqwIrcSDlkxH-219" value="" style="shape=partialRectangle;overflow=hidden;connectable=0;fillColor=none;top=0;left=0;bottom=0;right=0;align=left;spacingLeft=6;" vertex="1" parent="-dxICUGgYqwIrcSDlkxH-217">
          <mxGeometry x="30" width="150" height="30" as="geometry" />
        </mxCell>
        <mxCell id="-dxICUGgYqwIrcSDlkxH-220" style="edgeStyle=orthogonalEdgeStyle;rounded=0;orthogonalLoop=1;jettySize=auto;html=1;exitX=0.75;exitY=0;exitDx=0;exitDy=0;entryX=0.75;entryY=1;entryDx=0;entryDy=0;startArrow=ERmandOne;startFill=0;endArrow=ERoneToMany;endFill=0;" edge="1" parent="1" source="-dxICUGgYqwIrcSDlkxH-221" target="-dxICUGgYqwIrcSDlkxH-138">
          <mxGeometry relative="1" as="geometry">
            <Array as="points">
              <mxPoint x="585" y="430" />
              <mxPoint x="570" y="430" />
              <mxPoint x="570" y="240" />
              <mxPoint x="585" y="240" />
            </Array>
          </mxGeometry>
        </mxCell>
        <mxCell id="-dxICUGgYqwIrcSDlkxH-221" value="Umbrella" style="shape=table;startSize=30;container=1;collapsible=1;childLayout=tableLayout;fixedRows=1;rowLines=0;fontStyle=0;align=center;resizeLast=1;rounded=1;shadow=0;dashed=0;fontSize=14;strokeWidth=2;" vertex="1" parent="1">
          <mxGeometry x="450" y="470" width="180" height="100" as="geometry" />
        </mxCell>
        <mxCell id="-dxICUGgYqwIrcSDlkxH-225" value="" style="shape=partialRectangle;collapsible=0;dropTarget=0;pointerEvents=0;fillColor=none;points=[[0,0.5],[1,0.5]];portConstraint=eastwest;top=0;left=0;right=0;bottom=0;" vertex="1" parent="-dxICUGgYqwIrcSDlkxH-221">
          <mxGeometry y="30" width="180" height="30" as="geometry" />
        </mxCell>
        <mxCell id="-dxICUGgYqwIrcSDlkxH-226" value="" style="shape=partialRectangle;overflow=hidden;connectable=0;fillColor=none;top=0;left=0;bottom=0;right=0;" vertex="1" parent="-dxICUGgYqwIrcSDlkxH-225">
          <mxGeometry width="30" height="30" as="geometry" />
        </mxCell>
        <mxCell id="-dxICUGgYqwIrcSDlkxH-227" value="" style="shape=partialRectangle;overflow=hidden;connectable=0;fillColor=none;top=0;left=0;bottom=0;right=0;align=left;spacingLeft=6;" vertex="1" parent="-dxICUGgYqwIrcSDlkxH-225">
          <mxGeometry x="30" width="150" height="30" as="geometry" />
        </mxCell>
        <mxCell id="-dxICUGgYqwIrcSDlkxH-228" style="edgeStyle=orthogonalEdgeStyle;rounded=0;orthogonalLoop=1;jettySize=auto;html=1;exitX=0;exitY=0.5;exitDx=0;exitDy=0;entryX=1;entryY=0.5;entryDx=0;entryDy=0;startArrow=ERzeroToMany;startFill=1;endArrow=ERzeroToMany;endFill=1;" edge="1" parent="1" source="-dxICUGgYqwIrcSDlkxH-193">
          <mxGeometry relative="1" as="geometry">
            <mxPoint x="770" y="315" as="targetPoint" />
          </mxGeometry>
        </mxCell>
        <mxCell id="-dxICUGgYqwIrcSDlkxH-229" style="edgeStyle=orthogonalEdgeStyle;rounded=0;orthogonalLoop=1;jettySize=auto;html=1;exitX=1;exitY=0.5;exitDx=0;exitDy=0;entryX=1;entryY=0.5;entryDx=0;entryDy=0;startArrow=ERmandOne;startFill=0;endArrow=ERoneToMany;endFill=0;" edge="1" parent="1" source="-dxICUGgYqwIrcSDlkxH-185" target="-dxICUGgYqwIrcSDlkxH-166">
          <mxGeometry relative="1" as="geometry" />
        </mxCell>
        <mxCell id="-dxICUGgYqwIrcSDlkxH-230" style="edgeStyle=orthogonalEdgeStyle;rounded=0;orthogonalLoop=1;jettySize=auto;html=1;exitX=0.5;exitY=0;exitDx=0;exitDy=0;entryX=1;entryY=0.5;entryDx=0;entryDy=0;startArrow=ERoneToMany;startFill=0;endArrow=block;endFill=1;" edge="1" parent="1" source="-dxICUGgYqwIrcSDlkxH-162" target="-dxICUGgYqwIrcSDlkxH-237">
          <mxGeometry relative="1" as="geometry">
            <Array as="points">
              <mxPoint x="940" y="-15" />
            </Array>
            <mxPoint x="995" y="-70" as="sourcePoint" />
            <mxPoint x="220" y="-70" as="targetPoint" />
          </mxGeometry>
        </mxCell>
        <mxCell id="-dxICUGgYqwIrcSDlkxH-231" style="edgeStyle=orthogonalEdgeStyle;rounded=0;orthogonalLoop=1;jettySize=auto;html=1;exitX=0.75;exitY=1;exitDx=0;exitDy=0;entryX=0.25;entryY=0;entryDx=0;entryDy=0;startArrow=ERzeroToMany;startFill=1;endArrow=block;endFill=1;" edge="1" parent="1" source="-dxICUGgYqwIrcSDlkxH-153">
          <mxGeometry relative="1" as="geometry">
            <Array as="points" />
            <mxPoint x="165" y="180" as="sourcePoint" />
            <mxPoint x="230" y="200" as="targetPoint" />
          </mxGeometry>
        </mxCell>
        <mxCell id="-dxICUGgYqwIrcSDlkxH-232" value="partnerProject" style="swimlane;childLayout=stackLayout;horizontal=1;startSize=30;horizontalStack=0;rounded=1;fontSize=14;fontStyle=0;strokeWidth=2;resizeParent=0;resizeLast=1;shadow=0;dashed=0;align=center;" vertex="1" parent="1">
          <mxGeometry x="230" y="180" width="110" height="65" as="geometry" />
        </mxCell>
        <mxCell id="-dxICUGgYqwIrcSDlkxH-233" value="facultyProject" style="shape=table;startSize=30;container=1;collapsible=1;childLayout=tableLayout;fixedRows=1;rowLines=0;fontStyle=0;align=center;resizeLast=1;rounded=1;shadow=0;dashed=0;fontSize=14;strokeWidth=2;" vertex="1" parent="1">
          <mxGeometry x="260" y="-90" width="110" height="90" as="geometry" />
        </mxCell>
        <mxCell id="-dxICUGgYqwIrcSDlkxH-237" value="" style="shape=partialRectangle;collapsible=0;dropTarget=0;pointerEvents=0;fillColor=none;points=[[0,0.5],[1,0.5]];portConstraint=eastwest;top=0;left=0;right=0;bottom=0;" vertex="1" parent="-dxICUGgYqwIrcSDlkxH-233">
          <mxGeometry y="30" width="110" height="30" as="geometry" />
        </mxCell>
        <mxCell id="-dxICUGgYqwIrcSDlkxH-238" value="" style="shape=partialRectangle;overflow=hidden;connectable=0;fillColor=none;top=0;left=0;bottom=0;right=0;" vertex="1" parent="-dxICUGgYqwIrcSDlkxH-237">
          <mxGeometry width="30" height="30" as="geometry" />
        </mxCell>
        <mxCell id="-dxICUGgYqwIrcSDlkxH-239" value="" style="shape=partialRectangle;overflow=hidden;connectable=0;fillColor=none;top=0;left=0;bottom=0;right=0;align=left;spacingLeft=6;" vertex="1" parent="-dxICUGgYqwIrcSDlkxH-237">
          <mxGeometry x="30" width="80" height="30" as="geometry" />
        </mxCell>
        <mxCell id="-dxICUGgYqwIrcSDlkxH-240" style="shape=partialRectangle;collapsible=0;dropTarget=0;pointerEvents=0;fillColor=none;points=[[0,0.5],[1,0.5]];portConstraint=eastwest;top=0;left=0;right=0;bottom=0;" vertex="1" parent="-dxICUGgYqwIrcSDlkxH-233">
          <mxGeometry y="60" width="110" height="30" as="geometry" />
        </mxCell>
        <mxCell id="-dxICUGgYqwIrcSDlkxH-241" style="shape=partialRectangle;overflow=hidden;connectable=0;fillColor=none;top=0;left=0;bottom=0;right=0;" vertex="1" parent="-dxICUGgYqwIrcSDlkxH-240">
          <mxGeometry width="30" height="30" as="geometry" />
        </mxCell>
        <mxCell id="-dxICUGgYqwIrcSDlkxH-242" value="" style="shape=partialRectangle;overflow=hidden;connectable=0;fillColor=none;top=0;left=0;bottom=0;right=0;align=left;spacingLeft=6;" vertex="1" parent="-dxICUGgYqwIrcSDlkxH-240">
          <mxGeometry x="30" width="80" height="30" as="geometry" />
        </mxCell>
      </root>
    </mxGraphModel>
  </diagram>
</mxfile>
